<?xml version="1.0" encoding="UTF-8" standalone="no"?>
<!-- Created with Inkscape (http://www.inkscape.org/) -->

<svg
   version="1.1"
   id="svg2492"
   width="760.00037"
   height="316.08939"
   viewBox="0 0 760.00033 316.08937"
   xmlns="http://www.w3.org/2000/svg"
   xmlnsSvg="http://www.w3.org/2000/svg">
  <defs
     id="defs2496">
    <clipPath
       clipPathUnits="userSpaceOnUse"
       id="clipPath2508">
      <path
         d="M 0,800 H 800 V 0 H 0 Z"
         id="path2506" />
    </clipPath>
  </defs>
  <g
     id="g2500"
     transform="matrix(1.3333333,0,0,-1.3333333,-153.33292,784.94528)">
    <g
       id="g2502">
      <g
         id="g2504"
         clip-path="url(#clipPath2508)"
         style="fill:#ffffff;fill-opacity:1;stroke:none;stroke-width:0.99975;stroke-dasharray:none"
         transform="matrix(1,0,0,0.62812876,0,218.92394)">
        <g
           id="g2510"
           transform="translate(163.4717,511.292)"
           style="fill:#ffffff;fill-opacity:1;stroke:none;stroke-width:0.99975;stroke-dasharray:none">
          <path
             d="m 0,0 c 28.85,0 56.109,8.821 78.808,24.917 v 0.056 C 101.525,8.833 128.83,0 157.721,0 186.57,0 213.83,8.821 236.528,24.917 v 0.056 C 259.246,8.833 286.551,0 315.441,0 c 28.85,0 56.11,8.821 78.808,24.917 v 0.056 C 416.967,8.833 444.271,0 473.162,0 c 16.866,0 33.181,3.036 48.366,8.757 V 50.566 C 507.023,42.399 490.487,38 473.162,38 441.839,38 413.088,52.366 394.279,77.417 l -0.03,-0.022 v -0.076 c -0.536,-0.713 -1.081,-1.416 -1.633,-2.111 C 385.295,65.993 376.588,58.315 366.893,52.375 351.668,43.048 334.007,38 315.441,38 284.118,38 255.367,52.366 236.558,77.417 l -0.03,-0.022 v -0.076 c -0.536,-0.713 -1.08,-1.416 -1.632,-2.111 C 227.574,65.993 218.868,58.315 209.171,52.375 193.948,43.048 176.286,38 157.721,38 126.397,38 97.646,52.366 78.837,77.417 L 78.808,77.395 V 77.319 C 78.271,76.606 77.727,75.903 77.175,75.208 69.854,65.993 61.147,58.315 51.451,52.375 36.227,43.048 18.565,38 0,38 -17.368,38 -33.941,42.424 -48.472,50.63 V 8.787 C -33.255,3.045 -16.903,0 0,0"
             style="fill:#ffffff;fill-opacity:1;fill-rule:nonzero;stroke:none;stroke-width:0.99975;stroke-dasharray:none"
             id="path2512" />
        </g>
        <g
           id="g2514"
           transform="translate(557.751,438.709)"
           style="fill:#ffffff;fill-opacity:1;stroke:none;stroke-width:0.99975;stroke-dasharray:none">
          <path
             d="m 0,0 -0.03,-0.022 v -0.076 c -0.536,-0.713 -1.081,-1.416 -1.633,-2.111 -7.321,-9.215 -16.028,-16.893 -25.724,-22.833 -15.224,-9.326 -32.885,-14.375 -51.451,-14.375 -31.323,0 -60.074,14.366 -78.883,39.417 l -0.03,-0.022 v -0.076 c -0.536,-0.713 -1.081,-1.416 -1.633,-2.111 -7.321,-9.215 -16.028,-16.893 -25.724,-22.833 -15.224,-9.326 -32.885,-14.375 -51.451,-14.375 -31.323,0 -60.074,14.366 -78.883,39.417 l -0.03,-0.022 v -0.076 c -0.536,-0.713 -1.08,-1.416 -1.632,-2.111 -7.322,-9.215 -16.028,-16.893 -25.725,-22.833 -15.223,-9.326 -32.885,-14.375 -51.45,-14.375 -17.368,0 -33.942,4.424 -48.472,12.63 v -41.844 c 15.217,-5.741 31.568,-8.787 48.472,-8.787 28.849,0 56.109,8.822 78.807,24.918 v 0.055 c 22.718,-16.139 50.023,-24.973 78.913,-24.973 28.85,0 56.11,8.822 78.808,24.918 v 0.055 c 22.718,-16.139 50.022,-24.973 78.913,-24.973 28.85,0 56.109,8.822 78.808,24.918 v 0.055 c 22.717,-16.139 50.022,-24.973 78.913,-24.973 16.866,0 33.18,3.036 48.366,8.758 v 41.809 C 112.744,-35.018 96.208,-39.417 78.883,-39.417 47.56,-39.417 18.809,-25.051 0,0"
             style="fill:#ffffff;fill-opacity:1;fill-rule:nonzero;stroke:none;stroke-width:0.99975;stroke-dasharray:none"
             id="path2516" />
        </g>
        <g
           id="g2518"
           transform="translate(636.6338,249.291)"
           style="fill:#ffffff;fill-opacity:1;stroke:none;stroke-width:0.99975;stroke-dasharray:none">
          <path
             d="m 0,0 c -31.323,0 -60.074,14.367 -78.883,39.418 l -0.03,-0.023 V 39.32 c -0.536,-0.713 -1.081,-1.416 -1.633,-2.111 C -87.867,27.994 -96.574,20.316 -106.27,14.375 -121.494,5.049 -139.155,0 -157.721,0 c -31.323,0 -60.074,14.367 -78.883,39.418 l -0.03,-0.023 V 39.32 c -0.536,-0.713 -1.08,-1.416 -1.633,-2.111 -7.321,-9.215 -16.027,-16.893 -25.724,-22.834 C -279.214,5.049 -296.876,0 -315.441,0 c -31.324,0 -60.075,14.367 -78.884,39.418 l -0.029,-0.023 V 39.32 c -0.537,-0.713 -1.081,-1.416 -1.633,-2.111 -7.322,-9.215 -16.028,-16.893 -25.724,-22.834 C -436.935,5.049 -454.597,0 -473.162,0 c -17.368,0 -33.942,4.424 -48.472,12.63 v -41.843 c 15.217,-5.741 31.569,-8.787 48.472,-8.787 28.85,0 56.109,8.822 78.808,24.918 v 0.055 c 22.717,-16.139 50.022,-24.973 78.913,-24.973 28.849,0 56.109,8.822 78.807,24.918 v 0.055 c 22.718,-16.139 50.023,-24.973 78.913,-24.973 28.85,0 56.11,8.822 78.808,24.918 v 0.055 C -56.195,-29.166 -28.891,-38 0,-38 c 16.866,0 33.181,3.036 48.366,8.758 V 12.566 C 33.861,4.4 17.325,0 0,0"
             style="fill:#ffffff;fill-opacity:1;fill-rule:nonzero;stroke:none;stroke-width:0.99975;stroke-dasharray:none"
             id="path2520" />
        </g>
      </g>
    </g>
  </g>
</svg>
